<svg width="80" height="74" viewBox="0 0 80 74" fill="none" xmlns="http://www.w3.org/2000/svg">
<path d="M17.5 49.7656V41H1.875C0.835938 41 0 41.6896 0 42.5469V72.4531C0 73.3104 0.835938 74 1.875 74H28.125C29.1641 74 30 73.3104 30 72.4531V51.3125H19.375C18.3438 51.3125 17.5 50.6164 17.5 49.7656ZM22.5 64.9766C22.5 65.402 22.0781 65.75 21.5625 65.75H8.4375C7.92188 65.75 7.5 65.402 7.5 64.9766V64.4609C7.5 64.0355 7.92188 63.6875 8.4375 63.6875H21.5625C22.0781 63.6875 22.5 64.0355 22.5 64.4609V64.9766ZM22.5 60.8516C22.5 61.277 22.0781 61.625 21.5625 61.625H8.4375C7.92188 61.625 7.5 61.277 7.5 60.8516V60.3359C7.5 59.9105 7.92188 59.5625 8.4375 59.5625H21.5625C22.0781 59.5625 22.5 59.9105 22.5 60.3359V60.8516ZM22.5 56.2109V56.7266C22.5 57.152 22.0781 57.5 21.5625 57.5H8.4375C7.92188 57.5 7.5 57.152 7.5 56.7266V56.2109C7.5 55.7855 7.92188 55.4375 8.4375 55.4375H21.5625C22.0781 55.4375 22.5 55.7855 22.5 56.2109ZM30 48.8568V49.25H20V41H20.4766C20.9766 41 21.4531 41.1611 21.8047 41.4512L29.4531 47.7676C29.8047 48.0576 30 48.4508 30 48.8568Z" fill="#F9F7F7"/>
<path d="M60 16.5C64.7344 16.5 68.5714 12.8068 68.5714 8.25C68.5714 3.69316 64.7344 0 60 0C55.2656 0 51.4286 3.69316 51.4286 8.25C51.4286 12.8068 55.2656 16.5 60 16.5ZM66.4152 18.6012L63.2143 30.9375L61.0714 22.1719L63.2143 18.5625H56.7857L58.9286 22.1719L56.7857 30.9375L53.5848 18.6012C48.8103 18.8203 45 22.5779 45 27.225V29.9062C45 31.6143 46.4397 33 48.2143 33H71.7857C73.5603 33 75 31.6143 75 29.9062V27.225C75 22.5779 71.1897 18.8203 66.4152 18.6012Z" fill="#F9F7F7"/>
<path d="M29.1964 30.9375H27.8571V1.54688C27.8571 0.692549 27.1376 0 26.25 0H3.75C2.86239 0 2.14286 0.692549 2.14286 1.54688V30.9375H0.803571C0.359799 30.9375 0 31.2838 0 31.7109V33H30V31.7109C30 31.2838 29.6402 30.9375 29.1964 30.9375ZM8.57143 4.89844C8.57143 4.47131 8.93123 4.125 9.375 4.125H12.0536C12.4973 4.125 12.8571 4.47131 12.8571 4.89844V7.47656C12.8571 7.90369 12.4973 8.25 12.0536 8.25H9.375C8.93123 8.25 8.57143 7.90369 8.57143 7.47656V4.89844ZM8.57143 11.0859C8.57143 10.6588 8.93123 10.3125 9.375 10.3125H12.0536C12.4973 10.3125 12.8571 10.6588 12.8571 11.0859V13.6641C12.8571 14.0912 12.4973 14.4375 12.0536 14.4375H9.375C8.93123 14.4375 8.57143 14.0912 8.57143 13.6641V11.0859ZM12.0536 20.625H9.375C8.93123 20.625 8.57143 20.2787 8.57143 19.8516V17.2734C8.57143 16.8463 8.93123 16.5 9.375 16.5H12.0536C12.4973 16.5 12.8571 16.8463 12.8571 17.2734V19.8516C12.8571 20.2787 12.4973 20.625 12.0536 20.625ZM17.1429 30.9375H12.8571V25.5234C12.8571 25.0963 13.2169 24.75 13.6607 24.75H16.3393C16.7831 24.75 17.1429 25.0963 17.1429 25.5234V30.9375ZM21.4286 19.8516C21.4286 20.2787 21.0688 20.625 20.625 20.625H17.9464C17.5027 20.625 17.1429 20.2787 17.1429 19.8516V17.2734C17.1429 16.8463 17.5027 16.5 17.9464 16.5H20.625C21.0688 16.5 21.4286 16.8463 21.4286 17.2734V19.8516ZM21.4286 13.6641C21.4286 14.0912 21.0688 14.4375 20.625 14.4375H17.9464C17.5027 14.4375 17.1429 14.0912 17.1429 13.6641V11.0859C17.1429 10.6588 17.5027 10.3125 17.9464 10.3125H20.625C21.0688 10.3125 21.4286 10.6588 21.4286 11.0859V13.6641ZM21.4286 7.47656C21.4286 7.90369 21.0688 8.25 20.625 8.25H17.9464C17.5027 8.25 17.1429 7.90369 17.1429 7.47656V4.89844C17.1429 4.47131 17.5027 4.125 17.9464 4.125H20.625C21.0688 4.125 21.4286 4.47131 21.4286 4.89844V7.47656Z" fill="#F9F7F7"/>
<path d="M78.8961 48.6658L61.4623 41.301C60.5123 40.8997 59.4873 40.8997 58.5379 41.301L41.1034 48.6658C39.6322 49.2871 39.6322 51.9623 41.1034 52.5837L44.1428 53.8676C43.476 55.0011 43.0659 56.3838 43.0253 57.898C42.4234 58.3724 41.9997 59.2283 41.9997 60.2501C41.9997 61.1765 42.3547 61.9559 42.8659 62.4544L41.2703 72.3268C41.1316 73.1853 41.6066 74 42.2459 74H45.7528C46.3928 74 46.8678 73.1853 46.7291 72.3268L45.1335 62.4544C45.6447 61.9559 45.9997 61.1765 45.9997 60.2501C45.9997 59.2558 45.5953 58.4239 45.021 57.941C45.0685 56.6502 45.5485 55.5089 46.3141 54.7854L58.5373 59.9493C59.1035 60.1882 60.1898 60.4864 61.4616 59.9493L78.8961 52.5845C80.368 51.9623 80.368 49.288 78.8961 48.6658V48.6658ZM62.0491 62.5781C60.266 63.3309 58.7466 62.915 57.9498 62.5781L48.886 58.7496L47.9997 68.5C47.9997 71.5379 53.3722 74 59.9998 74C66.6273 74 71.9998 71.5379 71.9998 68.5L71.1136 58.7488L62.0491 62.5781V62.5781Z" fill="#F9F7F7"/>
</svg>
