<svg xmlns="http://www.w3.org/2000/svg" xmlns:xlink="http://www.w3.org/1999/xlink" viewBox="0 0 620.46 593.05"><defs><style>.cls-1,.cls-5{fill:#536ab2;}.cls-11,.cls-2{fill:#f9ab7d;}.cls-3{fill:#fff;}.cls-4{isolation:isolate;}.cls-5{opacity:0.4;}.cls-6{fill:#18171e;}.cls-7{clip-path:url(#clip-path);}.cls-8{fill:#27397a;opacity:0.35;}.cls-11,.cls-8{mix-blend-mode:multiply;}.cls-9{clip-path:url(#clip-path-2);}.cls-10{clip-path:url(#clip-path-3);}.cls-11{opacity:0.37;}.cls-12{fill:#38344b;}.cls-13{clip-path:url(#clip-path-4);}.cls-14{fill:#faa224;}.cls-15{fill:#667fbf;}.cls-16{fill:#7a83c0;}</style><clipPath id="clip-path" transform="translate(-6.65 -2.23)"><path id="_Clipping_Path_" data-name="&lt;Clipping Path&gt;" class="cls-1" d="M325.43,324.07s7.35,61.23,3.27,94.7,4.89,78.37,1.63,96.32-7.35,58.78-2.45,63.68c0,0-15.51,9-21.22,0,0,0-12.25-75.1-15.52-101.23s-16.32-124.08-19.59-124.9,8.17,103.68,5.72,124.9-5.72,80-3.27,93.07c0,0-19.59,5.71-25.31-.82,0,0,1.64-65.31,0-81.63s-22.85-121.64-13.06-154.29S296,240.8,325.43,324.07Z"/></clipPath><clipPath id="clip-path-2" transform="translate(-6.65 -2.23)"><path id="_Clipping_Path_2" data-name="&lt;Clipping Path&gt;" class="cls-1" d="M307.06,146.92H273.59l-38,22-6.12,59.6s5.71,96.33-2.45,114.29,31-2.45,35.1-8.17,8.17-16.33,8.17-16.33-4.08,16.33,19.59,26.13,52.25,14.69,50.61,11.43-9.79-44.9-11.43-54.7.82-57.14.82-57.14S357.27,169,307.06,146.92Z"/></clipPath><clipPath id="clip-path-3" transform="translate(-6.65 -2.23)"><path id="_Clipping_Path_3" data-name="&lt;Clipping Path&gt;" class="cls-2" d="M304.21,127.33c0,.82,0,15.51,3.26,19.59s-16.33,4.9-16.33,4.9l-14.42-9.95s3-13.72,2.18-20.26S304.21,127.33,304.21,127.33Z"/></clipPath><clipPath id="clip-path-4" transform="translate(-6.65 -2.23)"><polygon id="_Clipping_Path_4" data-name="&lt;Clipping Path&gt;" class="cls-3" points="306.65 141.21 309.92 151.82 292.78 212.23 278.87 251.92 269.92 179.57 271.82 150.73 275.63 141.21 290.33 150.19 306.65 141.21"/></clipPath></defs><title>Untitled-1</title><g class="cls-4"><g id="Layer_1" data-name="Layer 1"><path class="cls-5" d="M423.36,357.49l4.89-1.4,3.26-75.19c6.28,1.63,13.27-2.09,13.27-2.09,3.72-15.37-10.71-84-10.71-84L403.34,180.1,396.93,175c-6.06-13.27,3.95-8.85,7.34-23,0,0,.41-1.91.91-4.9h.25c3.6,0,6.52-2.5,6.52-5.58a5.58,5.58,0,0,0-3.68-5,5.26,5.26,0,0,0,1.86-3.67,5.16,5.16,0,0,0,2-4.52,4.74,4.74,0,0,0-.87-2.26,5.21,5.21,0,0,0,2.27-4.72,5.33,5.33,0,0,0-3.76-4.36,4.83,4.83,0,0,0,1-2.91c0-3-2.77-5.36-6.17-5.36h-.13c-.14-2.85-2.84-5.13-6.16-5.13a7,7,0,0,0-1.73.22,6.1,6.1,0,0,0-5.95-3.94,6.47,6.47,0,0,0-5.11,2.35,6.73,6.73,0,0,0-9.93.14,6.65,6.65,0,0,0-4.05-1.33,6.24,6.24,0,0,0-5.7,3.31,7.12,7.12,0,0,0-2-.28c-3.41,0-6.17,2.39-6.17,5.35a4.81,4.81,0,0,0,1.09,3,5.51,5.51,0,0,0-4.35,5.12,5.07,5.07,0,0,0,2,3.91,5,5,0,0,0-.19,8.82,5.24,5.24,0,0,0-2.82,4.5,5.45,5.45,0,0,0,4,5,6.69,6.69,0,0,0-.18,1.5c0,3.22,2,5.82,4.54,5.82a3.75,3.75,0,0,0,1.34-.25c.7,3,1.48,5.67,2.27,6.77,0,0,9.65,12.11,5.46,20-.46.88-39.91,24.91-39.91,24.91-15.83,26.54,14,87.77,14,87.77L344,352.14l9.32,1.39s1.16,64.26-2.1,74.27S343.28,513,340,520.45s1.16,6,1.86,10.94-6.52,8.15-2.1,18.39,23.28,4.66,25.15,1.63-6.29-16.76-4.43-19.32,1.17-3,.93-7.22,0-8.38,0-8.38c.47-24.44,13.74-85.43,13.74-85.43,3.72-6.52,18.16-76.83,18.16-76.83l-7.45,76.83c-7.92,24.9.46,79.84,1.63,82.87a27.78,27.78,0,0,1,1.63,14.43c-.93,6.75,2.32,9.78,2.32,9.78l-5.35,10.48c10.94,8.84,51.68,2.79,51.68,2.79s4.42-9.54-9.78-9.08-17.22-8.15-17.22-8.15c3.49-3.95-1.4-10.47.23-12.33s-1.63-69.38,3.49-87.77S423.36,357.49,423.36,357.49Z" transform="translate(-6.65 -2.23)"/><path class="cls-5" d="M514.48,132.9s2.8-14.83,24.64-10.05,48.72,56,17.92,74.14l22.4,12s28.56,48.3,21.84,71.26c0,0-8.4,4.79-21.28-1.43l2.8,23.91-6.16,1.92s9.52,53.09-29.12,132l5,85.61,10.64,21s21.84,7.65,7.84,9.09-21.28-1-22.4-3.83-4.48-17.22-4.48-17.22-2.24,19.61-2.8,18.18S536.88,527,536.88,527l4.48-10.53-10.64-41.13-13.44,34s-2.8,27.74-.56,29.65,12.88,5.26,5.6,7.66-20.16,1.43-19.6-2.87c.23-1.75,1.1-6.57,2.06-11.68,1.4-7.48,3-15.59,3-15.59L501,532.75s-.56-22,6.16-27.74,0-57.87,19-73.18l-1.12-22s-7.84-31.57-20.72-50.22,10.08-55.48,10.08-55.48l-1.68-4.31s-4.48,3.35-12.88-12-28-67-10.64-77,26.32-11.48,26.32-11.48-19.6-6.22-19-22S502.72,128.59,514.48,132.9Z" transform="translate(-6.65 -2.23)"/><path class="cls-5" d="M106.92,422.9s1.26-9.22,2-22.93c-4,2.11-4.12,2.11-.1,0,1.47-26.51,1.14-69.8-13.77-95.71l5.47-.78a4.29,4.29,0,0,0,3.54-3.11,4.25,4.25,0,0,1,1.25-2c5.55-5.05,34.48-31.69,38.67-42.32,0,0-20.33-41.72-39.94-52.42l-11-4.28s16-22.1,14.26-45.28-15.78-52.6-35.7-36.64c0,0-12.1-9.32-22.45,9.94S43.8,204,43.8,204,24.9,226.43,27,276.35c0,0-13.9,57.4-15,58.47S3.16,347.66,8.5,358.36s8.21,3.2,8.21,3.2,6.06-6.77,2.49-14.62c0,0,1.08-7.13-.7-10.69l20.69-52.07v8.38S18.6,328.87,34.27,402c0,0,0,0,.06.06,1.44,6.74,3.14,13.79,5.25,21.16A714.35,714.35,0,0,1,51,535.58L39.9,557s-12.13,1.43-7.5,3.93,14.62.35,14.62.35L53.08,547l1.43,14.26c3.21-.35,6.41-21.75,6.41-21.75l-5-6.42S74,466.71,61.28,422.18c-.2-.69.66-5.73,1.84-13.12a85.5,85.5,0,0,0,18.48-.42h0c2.14-.29,2.35-.29.2,0,2.94,10,6,18.05,8.72,21.39l30.67,100.91-1.79,24.25s-6.41,2.14-1.06,3.92,12.48,1.43,12.48-2.49-3.93-25.68-3.93-27.1S127.25,445,106.92,422.9Zm-19-132.18,18.28-51.47,21,20-26.74,34.23Z" transform="translate(-6.65 -2.23)"/><path class="cls-5" d="M301.67,551.36c-18.48-1.47-32.26-12.91-32.26-12.91l8.21-190.92,4.4-.59-1.47-63.05a66.38,66.38,0,0,0,9.68.86,8.47,8.47,0,0,0,8.34-6.55c7.66-32.83-1.88-65.59-6.45-78.41a13.69,13.69,0,0,0-7.37-7.94l-25.2-11.18-3.34-5-.8-7.8a8.09,8.09,0,0,1,2.12-6.31,8,8,0,0,0,2-4.05l1.71-9.41h.07c3.15,0,5.71-2.83,5.71-6.31a6.43,6.43,0,0,0-2.93-5.51c8.79-27.15-5.57-32.76-5.57-32.76-27-11.15-36.95,6.16-36.95,6.16-7.63-1.18-6.75,9.38-6.75,9.38l-.46,12.13a26.45,26.45,0,0,0,.23,4.45,6.22,6.22,0,0,0-4.46,6.15c0,3.48,2.56,6.31,5.72,6.31a5.37,5.37,0,0,0,1.39-.2l2.16,9.56a7.14,7.14,0,0,0,1.62,3.15l1.62,1.84a5.42,5.42,0,0,1,1.33,4.13l-.94,9.38-3.52,4.4-25.89,11.48a13.66,13.66,0,0,0-7.37,7.94c-4.57,12.82-14.11,45.58-6.45,78.41a8.47,8.47,0,0,0,8.34,6.55,66.15,66.15,0,0,0,9.67-.86l-1.46,63.05,4.39.59L209,538.45s-13.79,11.44-32.26,12.91c0,0-5,.29-3.23,5.57,0,0,8.21,4.1,31.09,2.05s28.15-1.76,28.15-1.76l-6.16-17.3,2.35-5.87L226,525,239.2,358.73,252.4,525l-2.93,9.09,2.34,5.87-6.15,17.3s5.27-.29,28.15,1.76,31.09-2.05,31.09-2.05C306.66,551.65,301.67,551.36,301.67,551.36Z" transform="translate(-6.65 -2.23)"/><path class="cls-6" d="M270.74,567.34c0,.82,4.89,16.33,1.63,17.14s-11.43.82-13.06,0-3.27-.81-6.53.82-32.66,2.45-34.29,0,22.86-8.16,32.65-17.14S270.74,567.34,270.74,567.34Z" transform="translate(-6.65 -2.23)"/><path class="cls-6" d="M323,577.14s16.33,10.61,15.51,13.88-21.22,5.71-29.39,3.26-12.24-3.26-6.53-9.8S314,573.06,323,577.14Z" transform="translate(-6.65 -2.23)"/><path id="_Clipping_Path_5" data-name="&lt;Clipping Path&gt;" class="cls-1" d="M325.43,324.07s7.35,61.23,3.27,94.7,4.89,78.37,1.63,96.32-7.35,58.78-2.45,63.68c0,0-15.51,9-21.22,0,0,0-12.25-75.1-15.52-101.23s-16.32-124.08-19.59-124.9,8.17,103.68,5.72,124.9-5.72,80-3.27,93.07c0,0-19.59,5.71-25.31-.82,0,0,1.64-65.31,0-81.63s-22.85-121.64-13.06-154.29S296,240.8,325.43,324.07Z" transform="translate(-6.65 -2.23)"/><g class="cls-7"><path class="cls-8" d="M334.41,364.89s-49.8-2.72-64.49-34h0s-35.1,37.28-50.61,25.85,58-61.22,58-61.22S341.76,330.6,334.41,364.89Z" transform="translate(-6.65 -2.23)"/></g><path id="_Clipping_Path_6" data-name="&lt;Clipping Path&gt;" class="cls-1" d="M307.06,146.92H273.59l-38,22-6.12,59.6s5.71,96.33-2.45,114.29,31-2.45,35.1-8.17,8.17-16.33,8.17-16.33-4.08,16.33,19.59,26.13,52.25,14.69,50.61,11.43-9.79-44.9-11.43-54.7.82-57.14.82-57.14S357.27,169,307.06,146.92Z" transform="translate(-6.65 -2.23)"/><g class="cls-9"><path class="cls-8" d="M225.84,256.72s16.32-3.27,22-4.9c0,0,82.45,36.74,96.33,27.76s-38.37-24.49-38.37-24.49l-74.29-21.23Z" transform="translate(-6.65 -2.23)"/><path class="cls-8" d="M328.7,197.94c-1.16-.07-8.17,29.84-15.51,30s-22.05.19-22.05.19l-2.44-4.08s-32.06-1.81-35.92-2.45c-9.8-1.64-12.25-34.7-12.25-34.7S225.84,214.27,224.2,220,230.73,239,230.73,239s89,18.51,97.15,3S341.76,198.76,328.7,197.94Z" transform="translate(-6.65 -2.23)"/></g><path id="_Clipping_Path_7" data-name="&lt;Clipping Path&gt;" class="cls-2" d="M304.21,127.33c0,.82,0,15.51,3.26,19.59s-16.33,4.9-16.33,4.9l-14.42-9.95s3-13.72,2.18-20.26S304.21,127.33,304.21,127.33Z" transform="translate(-6.65 -2.23)"/><g class="cls-10"><ellipse class="cls-11" cx="286.12" cy="115.31" rx="22.04" ry="21.23"/></g><ellipse class="cls-2" cx="286.12" cy="97.76" rx="26.12" ry="34.69"/><path class="cls-12" d="M318.89,97.94l2.46-3.27s1.63-20.4-2.45-26.12-18-17.1-28.57-18.77c-15.51-2.45-6.53,13.87-14.7,10.61s-18,6.53-14.69,17.14,5.71,22,5.71,22-.81-18.77,3.27-17.14,13.06,9,24.49-.82C300.26,76.6,317.25,71,318.89,97.94Z" transform="translate(-6.65 -2.23)"/><path class="cls-2" d="M317,99.78c-1.12,4.08-.27,7.87,1.91,8.46s4.84-2.22,6-6.3.27-7.86-1.91-8.46S318.1,95.7,317,99.78Z" transform="translate(-6.65 -2.23)"/><path class="cls-2" d="M269.39,99.78c1.12,4.08.27,7.87-1.9,8.46s-4.85-2.22-6-6.3-.27-7.86,1.91-8.46S268.27,95.7,269.39,99.78Z" transform="translate(-6.65 -2.23)"/><polygon id="_Clipping_Path_8" data-name="&lt;Clipping Path&gt;" class="cls-3" points="300 138.98 303.27 149.59 286.12 210 272.21 249.69 263.26 177.35 265.17 148.5 268.98 138.98 283.67 147.96 300 138.98"/><g class="cls-13"><path class="cls-14" d="M291.14,150.19s6.54,8.16,4.9,9-3.26,3.26-5.71,3.26-5.72-4.08-5.72-4.08Z" transform="translate(-6.65 -2.23)"/><polygon class="cls-14" points="283.67 160.21 284.08 192.43 276.12 228.17 271.43 218.17 272.25 191.23 283.67 160.21"/></g><path class="cls-15" d="M307.47,145.29s21.23,26.12,16.33,26.94-13.06,4.08-11.43,8.16,9.8,14.7-3.27,22-33.47,49-35.92,92.25C273.18,294.68,277.93,193,307.47,145.29Z" transform="translate(-6.65 -2.23)"/><path class="cls-15" d="M274,145.29s-26,21.37-21.46,23.3,11.76,7,9.22,10.59-12.94,12-1.94,22.2S281,256.8,273.31,299.45C273.31,299.45,291.64,198.55,274,145.29Z" transform="translate(-6.65 -2.23)"/><polygon class="cls-3" points="272.96 223.52 284.08 223.88 278.52 239.56 266.94 238.58 272.96 223.52"/><path class="cls-2" d="M289.86,228.58s22.25-5.06,31.16.72-.89,19.67-13.14,17.22-23.67-4.09-23.67-4.09Z" transform="translate(-6.65 -2.23)"/><path class="cls-1" d="M314,152.64c-4.88-6.26-7-5.59-3.26-4.9,8.71,1.59,35.59,16.77,42,27.75,7,12,9,74.29-13.06,90.62-18.38,13.61-96.33-18-96.33-18L263,240s35.92,2.44,46.53,4.89,15.71-38.88,17.55-43.26C340.13,170.6,314,152.64,314,152.64Z" transform="translate(-6.65 -2.23)"/><path class="cls-1" d="M269.92,148.55s-36.33,13.07-46.12,26.94-24.49,56.33-22.05,66.94,31,14.66,71.84-1.65l6.53-16.31s-38.5,6.35-39.18,1.64C233.18,172.23,269.92,148.55,269.92,148.55Z" transform="translate(-6.65 -2.23)"/><path class="cls-2" d="M248.7,226.89s-6.45-11.06-17.15-15.07c-6.53-2.45-16.73-.41-17.55,6.12s8.58,10.82,15.72,9.9S248.7,226.89,248.7,226.89Z" transform="translate(-6.65 -2.23)"/><path class="cls-12" d="M318.05,91.23s-2.5,24.23-12.58,24.23-13.74-4.58-23.82,0-15-22.21-15-22.21l-1.46-.69s3.66,10.07,1.83,15.57c0,0-.92,18.32,1.83,21.07s22,12.83,26.57,11.91,23.82-12.82,24.74-15.57-.92-18.33-.92-18.33-.91-10.07.92-15.57S318.05,91.23,318.05,91.23Z" transform="translate(-6.65 -2.23)"/><path class="cls-14" d="M578.43,535.38,383.49,343.54l38.23-38.85L616.66,496.53a27.26,27.26,0,0,1,.3,38.54h0A27.24,27.24,0,0,1,578.43,535.38Z" transform="translate(-6.65 -2.23)"/><path class="cls-16" d="M567,535.47,440.41,410.88,490,360.52l126.6,124.6a35.31,35.31,0,0,1,.4,50h0A35.32,35.32,0,0,1,567,535.47Z" transform="translate(-6.65 -2.23)"/><path class="cls-14" d="M155,325.38c-74.17-73-75.13-192.72-2.14-266.89s192.72-75.13,266.9-2.14,75.13,192.72,2.13,266.9S229.14,398.38,155,325.38ZM401.32,75.05c-63.86-62.84-166.94-62-229.79,1.84s-62,167,1.84,229.79,167,62,229.79-1.84S465.18,137.9,401.32,75.05Z" transform="translate(-6.65 -2.23)"/></g></g></svg>