<svg width="113" height="23" viewBox="0 0 113 23" fill="none" xmlns="http://www.w3.org/2000/svg">
<path d="M0.848 18V2.352H6.2C7.016 2.352 7.768 2.416 8.456 2.544C9.16 2.656 9.768 2.864 10.28 3.168C10.808 3.472 11.216 3.872 11.504 4.368C11.808 4.864 11.96 5.488 11.96 6.24C11.96 6.592 11.912 6.944 11.816 7.296C11.72 7.648 11.584 7.976 11.408 8.28C11.232 8.584 11.016 8.856 10.76 9.096C10.52 9.336 10.24 9.512 9.92 9.624V9.72C10.32 9.816 10.688 9.968 11.024 10.176C11.36 10.368 11.656 10.616 11.912 10.92C12.168 11.224 12.368 11.584 12.512 12C12.656 12.4 12.728 12.864 12.728 13.392C12.728 14.192 12.568 14.88 12.248 15.456C11.944 16.032 11.512 16.512 10.952 16.896C10.408 17.264 9.768 17.544 9.032 17.736C8.296 17.912 7.504 18 6.656 18H0.848ZM4.376 8.616H6.032C6.896 8.616 7.52 8.448 7.904 8.112C8.304 7.776 8.504 7.328 8.504 6.768C8.504 6.16 8.304 5.728 7.904 5.472C7.504 5.216 6.888 5.088 6.056 5.088H4.376V8.616ZM4.376 15.264H6.368C8.304 15.264 9.272 14.56 9.272 13.152C9.272 12.464 9.032 11.976 8.552 11.688C8.072 11.384 7.344 11.232 6.368 11.232H4.376V15.264ZM18.6673 18.288C17.3713 18.288 16.4273 17.864 15.8353 17.016C15.2593 16.168 14.9713 14.992 14.9713 13.488V6.096H18.4993V13.032C18.4993 13.896 18.6193 14.488 18.8593 14.808C19.0993 15.128 19.4753 15.288 19.9873 15.288C20.4353 15.288 20.8113 15.184 21.1153 14.976C21.4193 14.768 21.7473 14.432 22.0993 13.968V6.096H25.6273V18H22.7473L22.4833 16.344H22.4113C21.8993 16.952 21.3473 17.432 20.7553 17.784C20.1793 18.12 19.4833 18.288 18.6673 18.288ZM28.7319 18V6.096H31.6119L31.8519 8.184H31.9479C32.3799 7.368 32.8999 6.768 33.5079 6.384C34.1159 6 34.7239 5.808 35.3319 5.808C35.6679 5.808 35.9399 5.832 36.1479 5.88C36.3719 5.912 36.5719 5.968 36.7479 6.048L36.1719 9.096C35.9479 9.032 35.7399 8.984 35.5479 8.952C35.3559 8.92 35.1319 8.904 34.8759 8.904C34.4279 8.904 33.9559 9.064 33.4599 9.384C32.9799 9.704 32.5799 10.272 32.2599 11.088V18H28.7319ZM41.6109 18.288C40.8269 18.288 40.0189 18.136 39.1869 17.832C38.3709 17.528 37.6589 17.128 37.0509 16.632L38.6349 14.424C39.1789 14.84 39.6989 15.152 40.1949 15.36C40.6909 15.568 41.1949 15.672 41.7069 15.672C42.2349 15.672 42.6189 15.584 42.8589 15.408C43.0989 15.232 43.2189 14.984 43.2189 14.664C43.2189 14.472 43.1469 14.304 43.0029 14.16C42.8749 14 42.6909 13.856 42.4509 13.728C42.2269 13.6 41.9709 13.488 41.6829 13.392C41.3949 13.28 41.0989 13.16 40.7949 13.032C40.4269 12.888 40.0589 12.72 39.6909 12.528C39.3229 12.336 38.9869 12.104 38.6829 11.832C38.3789 11.544 38.1309 11.216 37.9389 10.848C37.7469 10.464 37.6509 10.024 37.6509 9.528C37.6509 8.984 37.7549 8.48 37.9629 8.016C38.1869 7.552 38.4989 7.16 38.8989 6.84C39.2989 6.52 39.7789 6.272 40.3389 6.096C40.8989 5.904 41.5229 5.808 42.2109 5.808C43.1229 5.808 43.9229 5.968 44.6109 6.288C45.2989 6.592 45.8989 6.936 46.4109 7.32L44.8269 9.432C44.3949 9.112 43.9709 8.864 43.5549 8.688C43.1389 8.512 42.7229 8.424 42.3069 8.424C41.4109 8.424 40.9629 8.736 40.9629 9.36C40.9629 9.552 41.0269 9.72 41.1549 9.864C41.2829 9.992 41.4509 10.112 41.6589 10.224C41.8829 10.336 42.1309 10.448 42.4029 10.56C42.6909 10.656 42.9869 10.76 43.2909 10.872C43.6749 11.016 44.0509 11.184 44.4189 11.376C44.8029 11.552 45.1469 11.776 45.4509 12.048C45.7709 12.32 46.0269 12.656 46.2189 13.056C46.4109 13.44 46.5069 13.904 46.5069 14.448C46.5069 14.992 46.4029 15.496 46.1949 15.96C45.9869 16.424 45.6749 16.832 45.2589 17.184C44.8429 17.52 44.3309 17.792 43.7229 18C43.1149 18.192 42.4109 18.288 41.6109 18.288ZM51.7475 18.288C51.2035 18.288 50.7075 18.192 50.2595 18C49.8275 17.824 49.4595 17.576 49.1555 17.256C48.8515 16.92 48.6115 16.536 48.4355 16.104C48.2755 15.672 48.1955 15.2 48.1955 14.688C48.1955 13.44 48.7235 12.464 49.7795 11.76C50.8355 11.056 52.5395 10.584 54.8915 10.344C54.8595 9.816 54.6995 9.4 54.4115 9.096C54.1395 8.776 53.6755 8.616 53.0195 8.616C52.5075 8.616 51.9955 8.712 51.4835 8.904C50.9875 9.096 50.4515 9.36 49.8755 9.696L48.6035 7.368C49.3715 6.904 50.1715 6.528 51.0035 6.24C51.8515 5.952 52.7475 5.808 53.6915 5.808C55.2275 5.808 56.3955 6.248 57.1955 7.128C58.0115 7.992 58.4195 9.344 58.4195 11.184V18H55.5395L55.2995 16.776H55.2035C54.6915 17.224 54.1555 17.592 53.5955 17.88C53.0355 18.152 52.4195 18.288 51.7475 18.288ZM52.9475 15.552C53.3475 15.552 53.6915 15.464 53.9795 15.288C54.2675 15.112 54.5715 14.864 54.8915 14.544V12.456C53.6435 12.632 52.7795 12.888 52.2995 13.224C51.8195 13.56 51.5795 13.96 51.5795 14.424C51.5795 14.808 51.6995 15.096 51.9395 15.288C52.1955 15.464 52.5315 15.552 52.9475 15.552Z" fill="#2196F3"/>
<path d="M61.4038 18V1.176H64.8358V10.824H64.9318L68.6998 6.096H72.5398L68.3638 10.992L72.8518 18H69.0358L66.3478 13.368L64.8358 15.072V18H61.4038ZM79.2005 18.288C78.3525 18.288 77.5605 18.152 76.8245 17.88C76.0885 17.592 75.4485 17.184 74.9045 16.656C74.3605 16.112 73.9365 15.456 73.6325 14.688C73.3285 13.92 73.1765 13.04 73.1765 12.048C73.1765 11.088 73.3365 10.224 73.6565 9.456C73.9765 8.672 74.3925 8.016 74.9045 7.488C75.4325 6.944 76.0325 6.528 76.7045 6.24C77.3765 5.952 78.0725 5.808 78.7925 5.808C79.6405 5.808 80.3765 5.952 81.0005 6.24C81.6405 6.528 82.1685 6.928 82.5845 7.44C83.0165 7.952 83.3365 8.56 83.5445 9.264C83.7525 9.952 83.8565 10.704 83.8565 11.52C83.8565 11.84 83.8405 12.144 83.8085 12.432C83.7765 12.72 83.7445 12.936 83.7125 13.08H76.5845C76.7445 13.944 77.0965 14.584 77.6405 15C78.2005 15.4 78.8805 15.6 79.6805 15.6C80.5285 15.6 81.3845 15.336 82.2485 14.808L83.4245 16.944C82.8165 17.36 82.1365 17.688 81.3845 17.928C80.6485 18.168 79.9205 18.288 79.2005 18.288ZM76.5605 10.752H80.8565C80.8565 10.08 80.7045 9.536 80.4005 9.12C80.0965 8.704 79.5845 8.496 78.8645 8.496C78.3045 8.496 77.8085 8.68 77.3765 9.048C76.9605 9.416 76.6885 9.984 76.5605 10.752ZM86.2944 18V6.096H89.1744L89.4144 8.184H89.5104C89.9424 7.368 90.4624 6.768 91.0704 6.384C91.6784 6 92.2864 5.808 92.8944 5.808C93.2304 5.808 93.5024 5.832 93.7104 5.88C93.9344 5.912 94.1344 5.968 94.3104 6.048L93.7344 9.096C93.5104 9.032 93.3024 8.984 93.1104 8.952C92.9184 8.92 92.6944 8.904 92.4384 8.904C91.9904 8.904 91.5184 9.064 91.0224 9.384C90.5424 9.704 90.1424 10.272 89.8224 11.088V18H86.2944ZM95.1609 22.704C94.6649 22.704 94.2569 22.672 93.9369 22.608C93.6009 22.544 93.3129 22.464 93.0729 22.368L93.6969 19.776C93.8569 19.824 94.0089 19.864 94.1529 19.896C94.2969 19.928 94.4569 19.944 94.6329 19.944C95.0969 19.944 95.4169 19.792 95.5929 19.488C95.7849 19.184 95.8809 18.696 95.8809 18.024V6.096H99.4089V17.928C99.4089 18.584 99.3369 19.2 99.1929 19.776C99.0649 20.352 98.8329 20.856 98.4969 21.288C98.1769 21.72 97.7449 22.064 97.2009 22.32C96.6569 22.576 95.9769 22.704 95.1609 22.704ZM97.6569 4.344C97.0649 4.344 96.5769 4.176 96.1929 3.84C95.8089 3.488 95.6169 3.04 95.6169 2.496C95.6169 1.952 95.8089 1.512 96.1929 1.176C96.5769 0.839999 97.0649 0.671999 97.6569 0.671999C98.2489 0.671999 98.7369 0.839999 99.1209 1.176C99.5049 1.512 99.6969 1.952 99.6969 2.496C99.6969 3.04 99.5049 3.488 99.1209 3.84C98.7369 4.176 98.2489 4.344 97.6569 4.344ZM105.537 18.288C104.993 18.288 104.497 18.192 104.049 18C103.617 17.824 103.249 17.576 102.945 17.256C102.641 16.92 102.401 16.536 102.225 16.104C102.065 15.672 101.985 15.2 101.985 14.688C101.985 13.44 102.513 12.464 103.569 11.76C104.625 11.056 106.329 10.584 108.681 10.344C108.649 9.816 108.489 9.4 108.201 9.096C107.929 8.776 107.465 8.616 106.809 8.616C106.297 8.616 105.785 8.712 105.273 8.904C104.777 9.096 104.241 9.36 103.665 9.696L102.393 7.368C103.161 6.904 103.961 6.528 104.793 6.24C105.641 5.952 106.537 5.808 107.481 5.808C109.017 5.808 110.185 6.248 110.985 7.128C111.801 7.992 112.209 9.344 112.209 11.184V18H109.329L109.089 16.776H108.993C108.481 17.224 107.945 17.592 107.385 17.88C106.825 18.152 106.209 18.288 105.537 18.288ZM106.737 15.552C107.137 15.552 107.481 15.464 107.769 15.288C108.057 15.112 108.361 14.864 108.681 14.544V12.456C107.433 12.632 106.569 12.888 106.089 13.224C105.609 13.56 105.369 13.96 105.369 14.424C105.369 14.808 105.489 15.096 105.729 15.288C105.985 15.464 106.321 15.552 106.737 15.552Z" fill="#0D47A1"/>
</svg>
