<svg width="155" height="23" viewBox="0 0 155 23" fill="none" xmlns="http://www.w3.org/2000/svg">
<path d="M6.8 18.288C6.272 18.288 5.736 18.16 5.192 17.904C4.664 17.632 4.168 17.24 3.704 16.728H3.608L3.32 18H0.56V1.176H4.088V5.304L3.992 7.128C4.456 6.712 4.952 6.392 5.48 6.168C6.024 5.928 6.576 5.808 7.136 5.808C7.856 5.808 8.504 5.952 9.08 6.24C9.656 6.528 10.144 6.936 10.544 7.464C10.96 7.976 11.272 8.608 11.48 9.36C11.704 10.096 11.816 10.92 11.816 11.832C11.816 12.856 11.672 13.768 11.384 14.568C11.112 15.368 10.736 16.048 10.256 16.608C9.792 17.152 9.256 17.568 8.648 17.856C8.056 18.144 7.44 18.288 6.8 18.288ZM5.984 15.408C6.592 15.408 7.112 15.136 7.544 14.592C7.976 14.032 8.192 13.136 8.192 11.904C8.192 9.76 7.504 8.688 6.128 8.688C5.424 8.688 4.744 9.048 4.088 9.768V14.64C4.408 14.928 4.728 15.128 5.048 15.24C5.368 15.352 5.68 15.408 5.984 15.408ZM17.8938 18.288C16.5978 18.288 15.6538 17.864 15.0618 17.016C14.4858 16.168 14.1978 14.992 14.1978 13.488V6.096H17.7258V13.032C17.7258 13.896 17.8458 14.488 18.0858 14.808C18.3258 15.128 18.7018 15.288 19.2138 15.288C19.6618 15.288 20.0378 15.184 20.3418 14.976C20.6458 14.768 20.9738 14.432 21.3258 13.968V6.096H24.8538V18H21.9738L21.7098 16.344H21.6378C21.1258 16.952 20.5738 17.432 19.9818 17.784C19.4058 18.12 18.7098 18.288 17.8938 18.288ZM27.9584 18V6.096H30.8384L31.0784 8.184H31.1744C31.6064 7.368 32.1264 6.768 32.7344 6.384C33.3424 6 33.9504 5.808 34.5584 5.808C34.8944 5.808 35.1664 5.832 35.3744 5.88C35.5984 5.912 35.7984 5.968 35.9744 6.048L35.3984 9.096C35.1744 9.032 34.9664 8.984 34.7744 8.952C34.5824 8.92 34.3584 8.904 34.1024 8.904C33.6544 8.904 33.1824 9.064 32.6864 9.384C32.2064 9.704 31.8064 10.272 31.4864 11.088V18H27.9584ZM40.8374 18.288C40.0534 18.288 39.2454 18.136 38.4134 17.832C37.5974 17.528 36.8854 17.128 36.2774 16.632L37.8614 14.424C38.4054 14.84 38.9254 15.152 39.4214 15.36C39.9174 15.568 40.4214 15.672 40.9334 15.672C41.4614 15.672 41.8454 15.584 42.0854 15.408C42.3254 15.232 42.4454 14.984 42.4454 14.664C42.4454 14.472 42.3734 14.304 42.2294 14.16C42.1014 14 41.9174 13.856 41.6774 13.728C41.4534 13.6 41.1974 13.488 40.9094 13.392C40.6214 13.28 40.3254 13.16 40.0214 13.032C39.6534 12.888 39.2854 12.72 38.9174 12.528C38.5494 12.336 38.2134 12.104 37.9094 11.832C37.6054 11.544 37.3574 11.216 37.1654 10.848C36.9734 10.464 36.8774 10.024 36.8774 9.528C36.8774 8.984 36.9814 8.48 37.1894 8.016C37.4134 7.552 37.7254 7.16 38.1254 6.84C38.5254 6.52 39.0054 6.272 39.5654 6.096C40.1254 5.904 40.7494 5.808 41.4374 5.808C42.3494 5.808 43.1494 5.968 43.8374 6.288C44.5254 6.592 45.1254 6.936 45.6374 7.32L44.0534 9.432C43.6214 9.112 43.1974 8.864 42.7814 8.688C42.3654 8.512 41.9494 8.424 41.5334 8.424C40.6374 8.424 40.1894 8.736 40.1894 9.36C40.1894 9.552 40.2534 9.72 40.3814 9.864C40.5094 9.992 40.6774 10.112 40.8854 10.224C41.1094 10.336 41.3574 10.448 41.6294 10.56C41.9174 10.656 42.2134 10.76 42.5174 10.872C42.9014 11.016 43.2774 11.184 43.6454 11.376C44.0294 11.552 44.3734 11.776 44.6774 12.048C44.9974 12.32 45.2534 12.656 45.4454 13.056C45.6374 13.44 45.7334 13.904 45.7334 14.448C45.7334 14.992 45.6294 15.496 45.4214 15.96C45.2134 16.424 44.9014 16.832 44.4854 17.184C44.0694 17.52 43.5574 17.792 42.9494 18C42.3414 18.192 41.6374 18.288 40.8374 18.288ZM50.9741 18.288C50.4301 18.288 49.9341 18.192 49.4861 18C49.0541 17.824 48.6861 17.576 48.3821 17.256C48.0781 16.92 47.8381 16.536 47.6621 16.104C47.5021 15.672 47.4221 15.2 47.4221 14.688C47.4221 13.44 47.9501 12.464 49.0061 11.76C50.0621 11.056 51.7661 10.584 54.1181 10.344C54.0861 9.816 53.9261 9.4 53.6381 9.096C53.3661 8.776 52.9021 8.616 52.2461 8.616C51.7341 8.616 51.2221 8.712 50.7101 8.904C50.2141 9.096 49.6781 9.36 49.1021 9.696L47.8301 7.368C48.5981 6.904 49.3981 6.528 50.2301 6.24C51.0781 5.952 51.9741 5.808 52.9181 5.808C54.4541 5.808 55.6221 6.248 56.4221 7.128C57.2381 7.992 57.6461 9.344 57.6461 11.184V18H54.7661L54.5261 16.776H54.4301C53.9181 17.224 53.3821 17.592 52.8221 17.88C52.2621 18.152 51.6461 18.288 50.9741 18.288ZM52.1741 15.552C52.5741 15.552 52.9181 15.464 53.2061 15.288C53.4941 15.112 53.7981 14.864 54.1181 14.544V12.456C52.8701 12.632 52.0061 12.888 51.5261 13.224C51.0461 13.56 50.8061 13.96 50.8061 14.424C50.8061 14.808 50.9261 15.096 51.1661 15.288C51.4221 15.464 51.7581 15.552 52.1741 15.552Z" fill="#2196F3"/>
<path d="M60.6303 18V1.176H64.0623V10.824H64.1583L67.9263 6.096H71.7663L67.5903 10.992L72.0783 18H68.2623L65.5743 13.368L64.0623 15.072V18H60.6303ZM78.4271 18.288C77.5791 18.288 76.7871 18.152 76.0511 17.88C75.3151 17.592 74.6751 17.184 74.1311 16.656C73.5871 16.112 73.1631 15.456 72.8591 14.688C72.5551 13.92 72.4031 13.04 72.4031 12.048C72.4031 11.088 72.5631 10.224 72.8831 9.456C73.2031 8.672 73.6191 8.016 74.1311 7.488C74.6591 6.944 75.2591 6.528 75.9311 6.24C76.6031 5.952 77.2991 5.808 78.0191 5.808C78.8671 5.808 79.6031 5.952 80.2271 6.24C80.8671 6.528 81.3951 6.928 81.8111 7.44C82.2431 7.952 82.5631 8.56 82.7711 9.264C82.9791 9.952 83.0831 10.704 83.0831 11.52C83.0831 11.84 83.0671 12.144 83.0351 12.432C83.0031 12.72 82.9711 12.936 82.9391 13.08H75.8111C75.9711 13.944 76.3231 14.584 76.8671 15C77.4271 15.4 78.1071 15.6 78.9071 15.6C79.7551 15.6 80.6111 15.336 81.4751 14.808L82.6511 16.944C82.0431 17.36 81.3631 17.688 80.6111 17.928C79.8751 18.168 79.1471 18.288 78.4271 18.288ZM75.7871 10.752H80.0831C80.0831 10.08 79.9311 9.536 79.6271 9.12C79.3231 8.704 78.8111 8.496 78.0911 8.496C77.5311 8.496 77.0351 8.68 76.6031 9.048C76.1871 9.416 75.9151 9.984 75.7871 10.752ZM85.5209 18V6.096H88.4009L88.6409 8.184H88.7369C89.1689 7.368 89.6889 6.768 90.2969 6.384C90.9049 6 91.5129 5.808 92.1209 5.808C92.4569 5.808 92.7289 5.832 92.9369 5.88C93.1609 5.912 93.3609 5.968 93.5369 6.048L92.9609 9.096C92.7369 9.032 92.5289 8.984 92.3369 8.952C92.1449 8.92 91.9209 8.904 91.6649 8.904C91.2169 8.904 90.7449 9.064 90.2489 9.384C89.7689 9.704 89.3689 10.272 89.0489 11.088V18H85.5209ZM94.3874 22.704C93.8914 22.704 93.4834 22.672 93.1634 22.608C92.8274 22.544 92.5394 22.464 92.2994 22.368L92.9234 19.776C93.0834 19.824 93.2354 19.864 93.3794 19.896C93.5234 19.928 93.6834 19.944 93.8594 19.944C94.3234 19.944 94.6434 19.792 94.8194 19.488C95.0114 19.184 95.1074 18.696 95.1074 18.024V6.096H98.6354V17.928C98.6354 18.584 98.5634 19.2 98.4194 19.776C98.2914 20.352 98.0594 20.856 97.7234 21.288C97.4034 21.72 96.9714 22.064 96.4274 22.32C95.8834 22.576 95.2034 22.704 94.3874 22.704ZM96.8834 4.344C96.2914 4.344 95.8034 4.176 95.4194 3.84C95.0354 3.488 94.8434 3.04 94.8434 2.496C94.8434 1.952 95.0354 1.512 95.4194 1.176C95.8034 0.839999 96.2914 0.671999 96.8834 0.671999C97.4754 0.671999 97.9634 0.839999 98.3474 1.176C98.7314 1.512 98.9234 1.952 98.9234 2.496C98.9234 3.04 98.7314 3.488 98.3474 3.84C97.9634 4.176 97.4754 4.344 96.8834 4.344ZM104.763 18.288C104.219 18.288 103.723 18.192 103.275 18C102.843 17.824 102.475 17.576 102.171 17.256C101.867 16.92 101.627 16.536 101.451 16.104C101.291 15.672 101.211 15.2 101.211 14.688C101.211 13.44 101.739 12.464 102.795 11.76C103.851 11.056 105.555 10.584 107.907 10.344C107.875 9.816 107.715 9.4 107.427 9.096C107.155 8.776 106.691 8.616 106.035 8.616C105.523 8.616 105.011 8.712 104.499 8.904C104.003 9.096 103.467 9.36 102.891 9.696L101.619 7.368C102.387 6.904 103.187 6.528 104.019 6.24C104.867 5.952 105.763 5.808 106.707 5.808C108.243 5.808 109.411 6.248 110.211 7.128C111.027 7.992 111.435 9.344 111.435 11.184V18H108.555L108.315 16.776H108.219C107.707 17.224 107.171 17.592 106.611 17.88C106.051 18.152 105.435 18.288 104.763 18.288ZM105.963 15.552C106.363 15.552 106.707 15.464 106.995 15.288C107.283 15.112 107.587 14.864 107.907 14.544V12.456C106.659 12.632 105.795 12.888 105.315 13.224C104.835 13.56 104.595 13.96 104.595 14.424C104.595 14.808 104.715 15.096 104.955 15.288C105.211 15.464 105.547 15.552 105.963 15.552ZM116.459 18.288C115.851 18.288 115.339 18.08 114.923 17.664C114.523 17.232 114.323 16.704 114.323 16.08C114.323 15.44 114.523 14.912 114.923 14.496C115.339 14.064 115.851 13.848 116.459 13.848C117.067 13.848 117.571 14.064 117.971 14.496C118.387 14.912 118.595 15.44 118.595 16.08C118.595 16.704 118.387 17.232 117.971 17.664C117.571 18.08 117.067 18.288 116.459 18.288ZM121.615 18V6.096H124.495L124.735 7.608H124.831C125.343 7.128 125.903 6.712 126.511 6.36C127.119 5.992 127.831 5.808 128.647 5.808C129.943 5.808 130.879 6.232 131.455 7.08C132.047 7.928 132.343 9.104 132.343 10.608V18H128.815V11.064C128.815 10.2 128.695 9.608 128.455 9.288C128.231 8.968 127.863 8.808 127.351 8.808C126.903 8.808 126.519 8.912 126.199 9.12C125.879 9.312 125.527 9.592 125.143 9.96V18H121.615ZM140.677 18.288C139.829 18.288 139.037 18.152 138.301 17.88C137.565 17.592 136.925 17.184 136.381 16.656C135.837 16.112 135.413 15.456 135.109 14.688C134.805 13.92 134.653 13.04 134.653 12.048C134.653 11.088 134.813 10.224 135.133 9.456C135.453 8.672 135.869 8.016 136.381 7.488C136.909 6.944 137.509 6.528 138.181 6.24C138.853 5.952 139.549 5.808 140.269 5.808C141.117 5.808 141.853 5.952 142.477 6.24C143.117 6.528 143.645 6.928 144.061 7.44C144.493 7.952 144.813 8.56 145.021 9.264C145.229 9.952 145.333 10.704 145.333 11.52C145.333 11.84 145.317 12.144 145.285 12.432C145.253 12.72 145.221 12.936 145.189 13.08H138.061C138.221 13.944 138.573 14.584 139.117 15C139.677 15.4 140.357 15.6 141.157 15.6C142.005 15.6 142.861 15.336 143.725 14.808L144.901 16.944C144.293 17.36 143.613 17.688 142.861 17.928C142.125 18.168 141.397 18.288 140.677 18.288ZM138.037 10.752H142.333C142.333 10.08 142.181 9.536 141.877 9.12C141.573 8.704 141.061 8.496 140.341 8.496C139.781 8.496 139.285 8.68 138.853 9.048C138.437 9.416 138.165 9.984 138.037 10.752ZM152.121 18.288C151.385 18.288 150.753 18.176 150.225 17.952C149.713 17.728 149.289 17.416 148.953 17.016C148.633 16.616 148.393 16.136 148.233 15.576C148.089 15 148.017 14.368 148.017 13.68V8.856H146.385V6.24L148.209 6.096L148.617 2.928H151.545V6.096H154.401V8.856H151.545V13.632C151.545 14.304 151.681 14.792 151.953 15.096C152.241 15.384 152.617 15.528 153.081 15.528C153.273 15.528 153.465 15.504 153.657 15.456C153.865 15.408 154.049 15.352 154.209 15.288L154.761 17.856C154.441 17.952 154.065 18.048 153.633 18.144C153.201 18.24 152.697 18.288 152.121 18.288Z" fill="#0D47A1"/>
</svg>
